# xmcd CD database file
#
# Track frame offsets:
#	151
#	12900
#	28335
#	39443
#	50116
#	63486
#	71029
#	83441
#	91619
#	103268
#	113942
#	129867
#	141525
#	153027
#	166872
#	177180
#	194019
#	207610
#
# Disc length: 2859 seconds
#
# Revision: 0
# Processed by: cddbd v1.5.2PL0 Copyright (c) Steve Scherf et al.
# Submitted via: CDex 1.51
#
DISCID=fc0b2912
DTITLE=Mark Howard - Church In The Valley - Old Time Mountain Hymns
DYEAR=2006
DGENRE=Country
TTITLE0=Just Over In The Glory Land
TTITLE1=Morning Has Broken
TTITLE2=The Lily Of The Valley
TTITLE3=Rock Of Ages
TTITLE4=What A Friend We Have In Jesus
TTITLE5=Where The Soul Never Dies
TTITLE6=We Gather Together
TTITLE7=Down In The Valley To Pray
TTITLE8=The Church's One Foundation
TTITLE9=A Mighty Fortress
TTITLE10=When They Ring Them Golden Bells
TTITLE11=Amazing Grace
TTITLE12=Church In The Wildwood
TTITLE13=A Tramp On The Street
TTITLE14=Bringing In The Sheaves
TTITLE15=Sweet Hour Of Prayer
TTITLE16=He Leadeth Me
TTITLE17=O Sacred Head Now Wounded
EXTD=YEAR: 2006
EXTT0=
EXTT1=
EXTT2=
EXTT3=
EXTT4=
EXTT5=
EXTT6=
EXTT7=
EXTT8=
EXTT9=
EXTT10=
EXTT11=
EXTT12=
EXTT13=
EXTT14=
EXTT15=
EXTT16=
EXTT17=
PLAYORDER=
